# xmcd CD database file
#
# Track frame offsets:
#	150
#	3309
#	34227
#	60111
#	81763
#	102255
#	139126
#	160435
#	172794
#	184847
#	197386
#	209091
#	221535
#	233605
#	285385
#
# Disc length: 4217 seconds
#
# Revision: 0
# Processed by: cddbd v1.5.2PL0 Copyright (c) Steve Scherf et al.
# Submitted via: CDex 1.51
#
DISCID=c310770f
DTITLE=Jonathan Goldman - Vocal Toning the Chakras
DYEAR=2005
DGENRE=New Age
TTITLE0=Introduction
TTITLE1=Sound as energy
TTITLE2=Planetary healing
TTITLE3=The power of intention
TTITLE4=Vowels as mantras
TTITLE5=Vibration and silence
TTITLE6=Root chakra
TTITLE7=Sacral chakra
TTITLE8=Navel chakra
TTITLE9=Heart chakra
TTITLE10=Throat chakra
TTITLE11=Third eye chakra
TTITLE12=Crown center chakra
TTITLE13=Meditation
TTITLE14=One minute vowel exercises
EXTD=YEAR: 2005
EXTT0=
EXTT1=
EXTT2=
EXTT3=
EXTT4=
EXTT5=
EXTT6=
EXTT7=
EXTT8=
EXTT9=
EXTT10=
EXTT11=
EXTT12=
EXTT13=
EXTT14=
PLAYORDER=
